<svg xmlns="http://www.w3.org/2000/svg" xmlns:xlink="http://www.w3.org/1999/xlink" viewBox="0 0 3000 3000" width="100%" height="100%"><defs><style>.cls-1-484{fill:none;}.cls-2-484{clip-path:url(#clip-path);}.cls-3-484{fill:#ef4136;}.cls-4-484{fill:url(#linear-gradient-484);}.cls-5-484{fill:url(#linear-gradient-2-484);}.cls-6-484{fill:url(#linear-gradient-3-484);}.cls-7-484{fill:url(#linear-gradient-4-484);}.cls-8-484{fill:url(#linear-gradient-5-484);}.cls-9-484{fill:url(#linear-gradient-6-484);}.cls-1-4840-484{fill:url(#linear-gradient-7-484);}.cls-1-4841-484{fill:url(#linear-gradient-8-484);}.cls-1-4842-484{fill:url(#linear-gradient-9-484);}.cls-1-4843-484{fill:url(#linear-gradient-1-4840-484);}.cls-1-4844-484{fill:url(#linear-gradient-1-4841-484);}.cls-1-4845-484{fill:url(#linear-gradient-1-4842-484);}.cls-1-4846-484{fill:url(#linear-gradient-1-4843-484);}.cls-1-4847-484{fill:url(#linear-gradient-1-4844-484);}.cls-1-4848-484{fill:url(#linear-gradient-1-4845-484);}.cls-1-4849-484{fill:url(#linear-gradient-1-4846-484);}.cls-2-4840-484{fill:url(#linear-gradient-1-4847-484);}.cls-2-4841-484{fill:url(#linear-gradient-1-4848-484);}.cls-2-4842-484{fill:url(#linear-gradient-1-4849-484);}.cls-2-4843-484{fill:url(#linear-gradient-2-4840-484);}.cls-2-4844-484{fill:url(#linear-gradient-2-4841-484);}.cls-2-4845-484{fill:url(#linear-gradient-2-4842-484);}.cls-2-4846-484{fill:url(#linear-gradient-2-4843-484);}.cls-2-4847-484{fill:url(#linear-gradient-2-4844-484);}.cls-2-4848-484{fill:url(#linear-gradient-2-4845-484);}.cls-2-4849-484{fill:url(#linear-gradient-2-4846-484);}.cls-3-4840-484{fill:url(#linear-gradient-2-4847-484);}.cls-3-4841-484{fill:url(#linear-gradient-2-4848-484);}.cls-3-4842-484{fill:url(#linear-gradient-2-4849-484);}</style><clipPath id="clip-path"><rect class="cls-1-484" width="3000" height="3000"></rect></clipPath><linearGradient id="linear-gradient-484" x1="3034.74" y1="1483.64" x2="19.84" y2="1483.64" gradientTransform="translate(2983.64 15.72) rotate(90)" gradientUnits="userSpaceOnUse"><stop offset="0" stop-color="#ffe666"></stop><stop offset="0.34" stop-color="#fdb940"></stop><stop offset="0.78" stop-color="#fc8212"></stop><stop offset="1" stop-color="#fb6d00"></stop></linearGradient><linearGradient id="linear-gradient-2-484" x1="3034.77" y1="1483.64" x2="19.6" y2="1483.64" xlink:href="#linear-gradient-484"></linearGradient><linearGradient id="linear-gradient-3-484" x1="3034.76" y1="1483.6" x2="19.93" y2="1483.6" xlink:href="#linear-gradient-484"></linearGradient><linearGradient id="linear-gradient-4-484" x1="3034.77" y1="1483.64" x2="19.82" y2="1483.64" xlink:href="#linear-gradient-484"></linearGradient><linearGradient id="linear-gradient-5-484" x1="3034.76" y1="1483.68" x2="19.95" y2="1483.68" xlink:href="#linear-gradient-484"></linearGradient><linearGradient id="linear-gradient-6-484" x1="3034.77" y1="1483.64" x2="19.95" y2="1483.64" xlink:href="#linear-gradient-484"></linearGradient><linearGradient id="linear-gradient-7-484" x1="3034.75" y1="1483.64" x2="19.93" y2="1483.64" xlink:href="#linear-gradient-484"></linearGradient><linearGradient id="linear-gradient-8-484" x1="3034.76" y1="1483.68" x2="20.02" y2="1483.68" xlink:href="#linear-gradient-484"></linearGradient><linearGradient id="linear-gradient-9-484" x1="3034.76" y1="1483.64" x2="19.96" y2="1483.64" xlink:href="#linear-gradient-484"></linearGradient><linearGradient id="linear-gradient-1-4840-484" x1="3034.77" y1="1483.64" x2="19.99" y2="1483.64" xlink:href="#linear-gradient-484"></linearGradient><linearGradient id="linear-gradient-1-4841-484" x1="3034.77" y1="1483.64" x2="19.99" y2="1483.64" xlink:href="#linear-gradient-484"></linearGradient><linearGradient id="linear-gradient-1-4842-484" x1="3034.76" y1="1483.68" x2="20.01" y2="1483.68" xlink:href="#linear-gradient-484"></linearGradient><linearGradient id="linear-gradient-1-4843-484" x1="3034.8" y1="1483.66" x2="20.01" y2="1483.66" xlink:href="#linear-gradient-484"></linearGradient><linearGradient id="linear-gradient-1-4844-484" x1="3034.81" y1="1483.64" x2="20.01" y2="1483.64" xlink:href="#linear-gradient-484"></linearGradient><linearGradient id="linear-gradient-1-4845-484" x1="3034.78" y1="1483.65" x2="19.96" y2="1483.65" xlink:href="#linear-gradient-484"></linearGradient><linearGradient id="linear-gradient-1-4846-484" x1="3034.75" y1="1483.66" x2="19.99" y2="1483.66" xlink:href="#linear-gradient-484"></linearGradient><linearGradient id="linear-gradient-1-4847-484" x1="3034.78" y1="1483.64" x2="20.04" y2="1483.64" xlink:href="#linear-gradient-484"></linearGradient><linearGradient id="linear-gradient-1-4848-484" x1="3034.8" y1="1483.6" x2="20.03" y2="1483.6" xlink:href="#linear-gradient-484"></linearGradient><linearGradient id="linear-gradient-1-4849-484" x1="3034.81" y1="1483.68" x2="20.05" y2="1483.68" xlink:href="#linear-gradient-484"></linearGradient><linearGradient id="linear-gradient-2-4840-484" x1="3034.76" y1="1483.66" x2="20.03" y2="1483.66" xlink:href="#linear-gradient-484"></linearGradient><linearGradient id="linear-gradient-2-4841-484" x1="3034.78" y1="1483.66" x2="19.99" y2="1483.66" xlink:href="#linear-gradient-484"></linearGradient><linearGradient id="linear-gradient-2-4842-484" x1="3034.78" y1="1483.63" x2="20" y2="1483.63" xlink:href="#linear-gradient-484"></linearGradient><linearGradient id="linear-gradient-2-4843-484" x1="3034.78" y1="1483.64" x2="20" y2="1483.64" xlink:href="#linear-gradient-484"></linearGradient><linearGradient id="linear-gradient-2-4844-484" x1="3034.81" y1="1483.62" x2="20.03" y2="1483.62" xlink:href="#linear-gradient-484"></linearGradient><linearGradient id="linear-gradient-2-4845-484" x1="3034.78" y1="1483.64" x2="20.04" y2="1483.64" xlink:href="#linear-gradient-484"></linearGradient><linearGradient id="linear-gradient-2-4846-484" x1="3034.8" y1="1483.64" x2="20.03" y2="1483.64" xlink:href="#linear-gradient-484"></linearGradient><linearGradient id="linear-gradient-2-4847-484" x1="3034.78" y1="1483.64" x2="20.01" y2="1483.64" xlink:href="#linear-gradient-484"></linearGradient><linearGradient id="linear-gradient-2-4848-484" x1="3034.79" y1="1483.64" x2="20.03" y2="1483.64" xlink:href="#linear-gradient-484"></linearGradient><linearGradient id="linear-gradient-2-4849-484" x1="3034.78" y1="1483.66" x2="20.03" y2="1483.66" xlink:href="#linear-gradient-484"></linearGradient></defs><g class="cls-2-484"><rect class="cls-3-484" width="3000" height="3000"></rect><path class="cls-4-484" d="M1267.41,3264.87c0-59.42,15.89-116.08,46.15-163.93,37.17-58.87,91.49-97.15,152.87-107.67,61.54-10.51,122.85,7.68,172.68,51.74,58.52,51.52,93.48,134,93.48,220.38,0,59.4-15.9,116.08-46.07,163.82-76.77,121.55-222.73,146.57-325.64,55.94C1302.37,3433.63,1267.41,3351.4,1267.41,3264.87Zm350.65.52c0-44.58-17.22-85.38-47.4-112.08-25.32-22.3-56.46-31.44-87.66-26.29-31.29,5.47-58.81,24.81-77.66,54.67-15.3,24.19-23.41,53-23.41,83.18,0,44.68,17.23,85.38,47.41,112.08,52.26,46,126.38,33.12,165.32-28.39C1610,3324.28,1618.06,3295.46,1618.06,3265.39Z"></path><path class="cls-5-484" d="M1195,3265.39c0-122.91,52.11-236,139.48-302.71,141.25-107.77,330.41-59.83,421.69,106.93,32,58.46,48.87,126,48.87,195.26,0,122.91-52.11,236.05-139.55,302.71-68.31,52.15-149.86,69.82-229.51,49.63s-148-75.92-192.11-156.67C1211.83,3402.19,1195,3334.58,1195,3265.39Zm499.48-.52c0-44.06-10.81-87-31.2-124.29-58.15-106.3-178.71-136.9-268.81-68.24-55.64,42.69-88.91,114.71-88.91,193,0,44.06,10.81,87.06,31.2,124.07,28.27,51.63,71.69,87.06,122.48,100,50.72,12.73,102.68,1.69,146.33-31.44C1661.19,3415.33,1694.46,3343.19,1694.46,3264.87Z"></path><path class="cls-6-484" d="M1106,3265.18c0-188.74,95.39-357.28,243.12-429.84,97.16-47.52,204.18-47.52,301.41,0,97.24,47.32,173,136.9,213.39,251.52a536.07,536.07,0,0,1,30.18,178c0,188.94-95.47,357.49-243.2,429.94-97.16,47.42-204.18,47.52-301.41.1s-173-136.89-213.39-251.62A537.47,537.47,0,0,1,1106,3265.18Zm681.29-.31a392.46,392.46,0,0,0-22-129.86c-29.44-83.59-84.65-148.67-155.52-183.37-70.88-34.38-148.91-34.38-219.79.21-107.68,52.89-177.24,176-177.24,313.33a392.61,392.61,0,0,0,22,130c29.44,83.7,84.65,148.67,155.52,183.38,70.88,34.48,148.91,34.48,219.79-.22C1717.72,3525.52,1787.28,3402.39,1787.28,3264.87Z"></path><path class="cls-7-484" d="M1010.68,3264.87c0-253,143.53-480.41,349-553.18,125.27-44.15,257.54-28.17,372.59,45s198.88,194.94,236.42,342.87a676.16,676.16,0,0,1,20.6,165.82c0,253-143.53,480.41-349,553.07-125.27,44.26-257.47,28.17-372.51-45s-199-194.93-236.5-342.77A676,676,0,0,1,1010.68,3264.87Zm875.75.52a532.86,532.86,0,0,0-16.27-131c-29.59-116.71-95.91-212.82-186.74-270.85-90.82-57.83-195.35-70.45-294.12-35.43-162.38,57.5-275.73,236.89-275.73,436.77a532,532,0,0,0,16.27,130.9c29.59,116.82,95.91,213,186.73,270.85s195.35,70.45,294.13,35.54C1773.08,3644.65,1886.43,3465.27,1886.43,3265.39Z"></path><path class="cls-8-484" d="M912.41,3264.66c0-324.8,187.54-602.7,456-675.57,152.95-41.32,310.47-10.09,443.4,88.32,133,98.11,225.52,251.72,260.71,432.37a815,815,0,0,1,15,155.82c0,324.9-187.47,602.7-455.92,675.46-315.76,85.8-631.6-147.94-704.11-520.58A817.63,817.63,0,0,1,912.41,3264.66Zm1076.18.94a682.38,682.38,0,0,0-12.52-129.54c-29.28-150.14-106.28-278-216.83-359.7s-241.43-108-368.62-73.29c-223.31,60.56-379.21,291.47-379.21,561.59a685.1,685.1,0,0,0,12.51,129.64c60.36,309.76,323,504.07,585.46,432.78C1832.69,3766.62,1988.59,3535.62,1988.59,3265.6Z"></path><path class="cls-9-484" d="M812.67,3264.23c0-391.14,236.87-726.44,563.3-797.21,372.67-80.75,731.57,211.56,799.87,651.59A951.7,951.7,0,0,1,2187.33,3266c0,391.15-236.94,726.34-563.31,797.11-372.66,80.85-731.56-211.45-799.94-651.59A959.11,959.11,0,0,1,812.67,3264.23ZM2092.15,3266a830,830,0,0,0-9.79-127.12c-58.88-379.26-368.17-631-689.23-561.37-281.25,61-485.36,349.72-485.36,686.7a830,830,0,0,0,9.87,127.12c58.88,379.16,368.16,631,689.23,561.38C1888.12,3891.64,2092.15,3602.91,2092.15,3266Z"></path><path class="cls-1-4840-484" d="M712,3264c0-455.81,288.38-850.94,670.84-918.87,429.56-76.12,831.6,274.42,896.29,781.54a1120.5,1120.5,0,0,1,8.91,139.53c0,455.7-288.39,850.63-670.84,918.76-429.56,76.12-831.6-274.42-896.29-781.44A1121.44,1121.44,0,0,1,712,3264Zm1484.77,2.2a982.57,982.57,0,0,0-7.88-123.44c-57.19-448.55-412.63-758.52-792.51-691-338.14,60.15-593,409.23-593,812.26a979.39,979.39,0,0,0,7.8,123.33c57.19,448.66,412.63,758.52,792.5,691C1941.78,4018.34,2196.75,3669.26,2196.75,3266.23Z"></path><path class="cls-1-4841-484" d="M610.7,3263.92c0-527.2,334.68-974.59,778.45-1040.42,486.39-72.12,931.84,336.37,993,910.88a1255.47,1255.47,0,0,1,7.07,131.85c0,527.31-334.68,974.7-778.37,1040.53C1124.46,4378.88,679,3970.5,617.77,3395.88A1255.78,1255.78,0,0,1,610.7,3263.92Zm1691.15,2.31a1131.58,1131.58,0,0,0-6.33-119c-55.12-517.94-456.79-886.37-895.47-821.5-400.12,59.52-701.9,462.75-701.9,938.22a1132.37,1132.37,0,0,0,6.33,119.23c55.2,517.74,456.79,886.28,895.47,821.3C2000.07,4145,2301.85,3741.7,2301.85,3266.23Z"></path><path class="cls-1-4842-484" d="M509.13,3263.92c0-599.11,381-1098.56,886.05-1162.07,263.22-33,521.43,57,727.37,253.19s334.61,475.68,362.65,786.38c3.76,41.54,5.67,83.6,5.67,125,0,598.91-381,1098.34-886,1161.95-543.22,68.14-1032.24-398.18-1090.1-1039.56C511,3347.3,509.13,3305.24,509.13,3263.92Zm1898.27,2.53c0-37.86-1.76-76.66-5.22-114.62-25.62-284.52-143.6-540.34-332.11-720S1645,2169.57,1404,2199.85c-462.54,58-811.42,515.42-811.42,1064.07,0,37.75,1.76,76.55,5.14,114.5,53,587.24,500.82,1014.34,998.24,952.1C2058.52,4272.26,2407.4,3814.88,2407.4,3266.45Z"></path><path class="cls-1-4843-484" d="M407.26,3263.81c0-670.93,427.2-1222.73,993.74-1283.51,600.11-64.45,1132.64,459.38,1187.18,1168,3,39.32,4.56,79.07,4.56,118.19,0,670.82-427.2,1222.62-993.74,1283.29-290.67,31.33-574.27-72.87-798.47-293.46s-362.29-531.19-388.71-874.39C408.8,3342.77,407.26,3302.93,407.26,3263.81Zm2105.84,2.64c0-36.18-1.32-73.09-4.19-109.57C2458.34,2500,1964.52,2014.16,1408.14,2073.67,883,2130.46,486.89,2641.88,486.89,3263.81c0,36.28,1.33,73.08,4.2,109.56,24.51,318.28,152.51,606,360.45,810.68,207.86,204.5,470.77,301.24,740.32,272.32C2117,4399.7,2513.1,3888.48,2513.1,3266.45Z"></path><path class="cls-1-4844-484" d="M305.09,3263.71c0-730.76,483.88-1347.86,1101.58-1405,656.85-60.87,1233,520.79,1284.49,1296.24,2.42,37,3.75,74.66,3.75,111.46,0,730.85-483.89,1347.74-1101.58,1404.84-656.85,61.09-1233-520.68-1284.49-1296C306.42,3338.16,305.09,3300.61,305.09,3263.71Zm2314.08,2.74c0-34.5-1.18-69.83-3.46-104.62-48.28-726.14-588-1270.9-1203.15-1214.12-578.54,53.63-1031.73,631.5-1031.73,1316,0,34.49,1.18,69.82,3.46,104.72,48.28,726.14,588,1270.8,1203.15,1214.12C2166,4528.82,2619.17,3950.94,2619.17,3266.45Z"></path><path class="cls-1-4845-484" d="M202.86,3263.71c0-801.95,531.2-1472.14,1209.4-1526.71,713.53-57,1333.44,581.88,1381.87,1424.5,2,34.7,2.94,70.35,2.94,104.95,0,801.94-531.13,1472.45-1209.33,1526.7-713.53,57-1333.44-581.87-1381.87-1424.41C203.89,3334,202.86,3298.4,202.86,3263.71Zm2522.37,2.74c0-32.71-.88-66.25-2.79-99.26-45.72-795.85-631.24-1399.28-1305.32-1345.55C776.46,1873.16,274.77,2506.46,274.77,3263.71c0,32.8.88,66.24,2.79,99.25,45.71,795.85,631.24,1399.39,1305.32,1345.66C2223.47,4657.1,2725.23,4023.8,2725.23,3266.45Z"></path><path class="cls-1-4846-484" d="M100.47,3263.71c0-872.71,578.61-1596.63,1317.24-1648.26C2188.06,1562,2851.62,2258.31,2897,3168c1.66,32.59,2.46,65.82,2.46,98.42,0,872.7-578.57,1596.63-1317.2,1648.25C811.93,4968.11,148.38,4271.84,103,3362.12,101.35,3329.53,100.47,3296.3,100.47,3263.71Zm2731.05,2.74c0-30.92-.74-62.68-2.36-93.79C2786,2307.1,2154.65,1644.78,1421.68,1695.79c-702.78,48.78-1253.2,737.48-1253.2,1567.92,0,30.92.74,62.67,2.36,93.79,43.13,865.55,674.51,1528,1407.48,1476.88C2281.1,4785.58,2831.52,4096.88,2831.52,3266.45Z"></path><path class="cls-1-4847-484" d="M-2,3263.71C-2,2319.82,624,1542.38,1423.08,1494c827.11-49.93,1534.49,703.85,1577,1680.34,1.32,30.49,1.95,61.61,1.95,92.11,0,944-625.94,1721.43-1425.08,1769.7C749.81,5086.19,42.47,4332.4,0,3355.92-1.33,3325.32-2,3294.21-2,3263.71Zm2939.87,2.74c0-29.34-.63-58.68-1.88-88.33-40.63-934.85-717.83-1656.46-1509.68-1608.51C636.54,1617.55,23,2409.61,64,3352.14,104.59,4287,781.83,5008.49,1573.68,4960.54,2338.66,4914.28,2937.88,4170.06,2937.88,3266.45Z"></path><path class="cls-1-4848-484" d="M-104.59,3263.81c0-1015.27,673.34-1845.93,1533-1891.25,883.85-46.68,1635,764.41,1674.52,1808.09,40.22,1052.29-647.58,1930.25-1531.29,1976.94S-63.37,4393.18-102.91,3349.5C-104,3320.91-104.59,3292.09-104.59,3263.81Zm3148.94,2.64q0-41.17-1.62-82.65c-38-1004.45-761-1785-1611.62-1740.15S-80.75,2332.12-42.77,3346.46c38,1004.45,761,1784.94,1611.66,1740.15C2396.29,5043.08,3044.35,4243.55,3044.35,3266.45Z"></path><path class="cls-1-4849-484" d="M-207.2,3263.92c0-1086.57,720.81-1970.74,1640.81-2013,455.69-20.81,891.06,169.18,1225.67,534.66s528.82,863.25,546.56,1401.06c36.73,1121.81-697,2049.19-1639.45,2092.61C625.71,5322.35-169.22,4454.06-205.88,3343.61-206.76,3316.91-207.2,3290.21-207.2,3263.92Zm3358,2.31c0-25.34-.41-51.1-1.25-76.86C3132.38,2669,2944.76,2187.76,2621,1834.26c-323.57-353.5-744.59-537-1185.19-516.79-889.74,41-1586.64,895.62-1586.64,1946.45,0,25.24.45,51.1,1.25,77,35.4,1074,804.14,1913.43,1713.75,1871.79C2453.92,5171.68,3150.82,4317,3150.82,3266.23Z"></path><path class="cls-2-4840-484" d="M-309.81,3263.92c0-555.8,180.19-1082.16,507.51-1482.76,328.06-401.34,768.81-632.66,1241.21-651.69,483.15-19.24,943.69,184.74,1296.84,574.41,353.2,389.88,556.68,918.65,573,1489.17.7,24.4,1.07,48.89,1.07,73.18,0,555.8-180.19,1082.16-507.51,1482.77-328.06,401.22-768.81,632.75-1241.21,651.57C563.74,5440.43-275.06,4514.73-308.78,3337.1Q-309.77,3300.5-309.81,3263.92Zm3567.2,2.31c0-23.56-.36-47.21-1.06-71.18-15.86-554.12-213.45-1067.33-556.42-1445.85s-790.08-576.62-1259.24-557.8C488.51,1229.35-257.4,2139.6-257.4,3263.92c0,23.65.37,47.32,1,71.29,32.76,1143.25,847.27,2042.13,1815.7,2003.65C2511.49,5300.8,3257.39,4390.55,3257.39,3266.23Z"></path><path class="cls-2-4841-484" d="M-412.49,3263.92c0-589.23,191.6-1147.14,539.45-1570.67,348.6-424.57,816.36-667.88,1317.1-685.33,510.67-17.56,996.54,200.72,1368.17,614.47,371.6,413.95,584.5,973.85,599.48,1576.77C3427,3814,3234.1,4397.18,2873,4837.1c-348.6,424.37-816.35,667.78-1317.09,685.13C501.76,5558.72-380.84,4575.71-411.67,3331.1-412.27,3308.71-412.49,3286.31-412.49,3263.92Zm3776.43,2.31q0-32.49-.81-65.61c-14.57-587.44-222-1133.26-584.24-1536.49s-835.72-616.05-1333.36-598.91C412.41,1101.18-393.72,2102.48-363.1,3329.53c30,1212.85,890.26,2170.94,1917.57,2135.4C2569.11,5429.91,3363.94,4464.05,3363.94,3266.23Z"></path><path class="cls-2-4842-484" d="M-515.31,3264c0-623.1,203-1212.12,571.47-1658.88,369.2-447.71,864-702.91,1393.05-718.67,1110.85-33,2037.4,1007.19,2065.37,2318.55,13.76,645.81-190.31,1258.6-570.78,1720-369.16,447.82-863.94,703-1393,718.68C439.94,5676.69-486.61,4636.49-514.58,3325-515,3304.61-515.31,3284.21-515.31,3264Zm3985.87,2.2c0-19.77-.26-39.95-.66-59.72C3442.52,1924,2536.51,906.87,1450.39,939.15,356.47,971.85-497.13,2026-469.9,3323.64c27.31,1282.56,933.32,2299.74,2019.51,2267.47C2626.75,5559.14,3470.56,4537.86,3470.56,3266.23Z"></path><path class="cls-2-4843-484" d="M-618.06,3264.13c0-656.73,214.33-1277.1,603.41-1747.1,389.81-470.83,911.45-737.91,1469-752.1C2020,750.62,2556.53,997.2,2965.07,1459.31c408.52,461.79,640.23,1084.15,652.44,1751.94,12.33,678.71-203,1318.83-602.93,1801.87C2624.84,5484,2103.12,5751,1545.63,5765.32,378,5794.77-592.3,4697.68-617.48,3319-617.85,3300.61-618.06,3282.21-618.06,3264.13Zm4195.27,2.1c0-17.87-.18-36-.51-54.05-11.92-654.84-239.19-1265.11-639.85-1718.27S2009.94,799.1,1455.25,813.08C319.52,842-602.39,1970.63-576.7,3318-552,4669.82,399.6,5746.19,1544.75,5717.18,2665.46,5688.47,3577.21,4589,3577.21,3266.23Z"></path><path class="cls-2-4844-484" d="M-720.82,3264.23c0-690.28,225.67-1342.07,635.44-1835.41C325,935.05,873.62,656,1459.51,643.38c593.12-12.72,1155,247.94,1582,734S3709.63,2517,3720.41,3217.34c.26,16.3.37,32.49.37,48.68,0,690.18-225.67,1342.08-635.4,1835.21-410.35,493.87-959,772.93-1544.89,785.44-1224.36,26.39-2238.64-1128-2260.86-2573.75C-720.67,3296.72-720.82,3280.33-720.82,3264.23ZM3683.87,3266q0-24-.37-47.95c-10.67-688.7-247.75-1331.13-667.67-1809.23S2043.43,674.5,1460.18,687C278,712.36-683.87,1868.54-683.87,3264.23c0,16,.15,31.86.37,48.05,22,1421.36,1019.36,2556.83,2223.32,2530.86C2722,5817.79,3683.87,4661.72,3683.87,3266Z"></path><path class="cls-2-4845-484" d="M-823.57,3264.23c0-724.13,237-1406.94,667.38-1923.63C274.62,823.81,850.28,533,1464.59,521.83c620.57-11.15,1207.79,263.81,1653.25,773.87,445.5,510.38,696.08,1195,705.47,1927.64,9.5,741.48-228.32,1439.65-667.12,1966.21-430.81,516.69-1006.41,807.63-1620.78,818.77-1281.11,23-2339.26-1188.88-2358.69-2701.4C-823.57,3292.73-823.57,3278.32-823.57,3264.23ZM3790.52,3266c0-14.09-.07-28.28-.22-42.06C3781,2501.61,3534,1826.89,3094.84,1323.89s-1017.93-774-1629.73-762.84C221.33,583.24-790.52,1796-790.52,3264.23c0,14,.07,28.28.22,42.07C-771,4797.36,272,5991.82,1534.89,5969.21,2778.67,5946.81,3790.52,4734.06,3790.52,3266Z"></path><path class="cls-2-4846-484" d="M-926.47,3264.34C-926.47,2506.88-678,1792.41-227,1252.6,224.42,712.36,827,410,1469.67,400.28c648.17-9.46,1260.57,279.58,1724.58,813.93s723.94,1249.87,732,2015c7.94,772.19-241,1500-699.29,2048.34C2775.58,5817.79,2173,6120.3,1530.33,6130,882.16,6139.33,269.76,5850.29-194.25,5316c-464-534.45-724-1250-732.08-2015.11C-926.39,3288.52-926.47,3276.54-926.47,3264.34Zm4823.72,1.47c0-12-.08-24-.18-36.16-8-755.9-264.84-1462.9-723.22-1990.73C2715.44,710.88,2110.33,425.41,1470.12,435,164.73,454.22-897.25,1723.43-897.25,3264.34c0,12,.08,24,.22,36.17,7.95,756,264.83,1462.89,723.17,1990.82s1063.53,813.52,1703.74,803.84C2835.27,6075.93,3897.25,4806.72,3897.25,3265.81Z"></path><path class="cls-2-4847-484" d="M-1029.3,3264.55c0-791.54,259.75-1537.43,731.42-2100.07,472-563.16,1101.5-877.76,1772.63-885.64,675.62-7.88,1313.34,295.25,1795.83,853.57s751.91,1305.28,758.64,2102.91l.11,30.28c0,791.54-259.75,1537.43-731.42,2100.07-472,563.05-1101.53,877.76-1772.66,885.64-675.63,8-1313.34-295.36-1795.83-853.57s-751.88-1305.28-758.64-2102.91Zm5033.31,1-.11-30c-6.69-789.74-273.4-1529.12-751.07-2081.67-477.54-552.84-1108.93-853-1777.78-845.15C108.12,324.89-1004,1650.67-1004,3264.55l.22,30.08c6.62,789.64,273.3,1529,751,2081.45C224.71,5928.94,856.1,6229.13,1525,6221.45,2891.91,6205.26,4004,4879.59,4004,3265.6Z"></path><path class="cls-2-4848-484" d="M-1132.2,3264.66c0-825.18,271.09-1602.32,763.51-2188.19,492.5-586.29,1149-912.66,1848.52-919.07,1451.35-13.15,2641.11,1370.15,2652.25,3083.92l.12,24.28c0,825.08-271.13,1602-763.47,2188.18-492.54,586.19-1149,912.46-1848.56,919-703.08,6.52-1366.12-310.81-1867.08-893.42C-847.86,4897-1126.68,4119.18-1132.12,3288.94Zm5242.94.94-.08-24C4099.63,1541.85,2919.55,169.8,1480,182.74,51.45,195.67-1110.78,1578-1110.78,3264.66l.07,23.86c5.38,823.51,281.91,1595.06,778.83,2173C165,6039.13,822.61,6353.72,1520,6347.42,2948.51,6334.48,4110.74,4952.24,4110.74,3265.6Z"></path><path class="cls-2-4849-484" d="M-1235,3264.76c0-858.93,282.5-1667.5,795.39-2276.61C73.53,378.83,757,40.69,1484.91,35.75,2993,26,4226.67,1466.77,4235,3247.1l0,18.29c0,859-282.5,1667.61-795.39,2276.5C2926.5,6151.32,2243,6489.57,1515.09,6494.4,784.56,6499,96.13,6167.82-423.3,5561.14S-1231,4145.46-1235,3283.05Zm5452.53.63-.07-18.09C4209.19,1478.34,2983.4,46.89,1485,56.57-5.16,66.35-1217.5,1505.58-1217.5,3264.76l.07,18.09c4,857.14,290.37,1661.08,806.49,2263.47,516.12,602.68,1200.06,932,1926,927.37C3005.16,6463.81,4217.5,5024.68,4217.5,3265.39Z"></path><path class="cls-3-4840-484" d="M-1337.92,3264.87c0-892.48,293.83-1732.48,827.39-2364.83C23.18,267.7,733.62-82.44,1489.92-85.6c1564.88-6.62,2842.45,1491.08,2848,3338.79v12.2c0,892.69-293.83,1732.48-827.43,2364.62-533.67,632.44-1244.11,982.69-2000.41,985.85-1564.92,6.4-2842.49-1491.08-2848-3338.9Zm5662.19.52,0-12C4318.71,1414.62,3047.33-76,1490-69.61-61.76-63-1324.3,1432.81-1324.3,3264.87v12c5.59,1838.68,1277,3329.33,2834.31,3322.81C3061.79,6593.24,4324.27,5097.24,4324.27,3265.39Z"></path><path class="cls-3-4841-484" d="M-1440.9,3265c0-926.12,305.24-1797.36,859.49-2452.93S710.29-205.56,1495-207.24c785.52-1.37,1524.55,358.12,2081,1012.86s863.57,1526.19,864.94,2453.57v6c0,926.12-305.28,1797.36-859.53,2453S2289.71,6735.71,1505,6737.4c-785.51,1.47-1524.51-358.13-2081-1013-556.39-654.53-863.61-1526.09-864.94-2453.36Zm5871.93.21v-6c-2.76-1908.29-1319.85-3458-2936-3454.76C-118.43-192.32-1431,1360.05-1431,3265v6.1c2.81,1908.29,1319.82,3458,2936,3454.66C3118.43,6722.58,4431,5170.21,4431,3265.18Z"></path><path class="cls-3-4842-484" d="M-1543.79,3265.08c0-485.14,80.51-955.67,239.21-1399C-1151.26,1438.38-931.84,1054-652.37,724c279.56-330.16,605-589.24,967.62-770.19C690.49-233.64,1089.14-328.58,1500-328.58s809.51,94.94,1184.75,282.42c362.55,181,688,440,967.58,770.19,279.51,329.94,499,714.35,652.25,1142.09,158.7,443.29,239.18,913.82,239.18,1399S4463.28,4220.74,4304.58,4664c-153.28,427.85-372.74,812.15-652.25,1142.09s-605,589.24-967.58,770.09c-375.24,187.58-773.89,282.63-1184.75,282.63s-809.51-95.05-1184.75-282.63c-362.58-180.85-688.06-440-967.62-770.09S-1151.26,5091.88-1304.58,4664C-1463.28,4220.74-1543.79,3750.32-1543.79,3265.08Zm6081.66,0c0-1977.79-1362.76-3586.93-3037.87-3586.93S-1537.91,1287.29-1537.91,3265.08-175.11,6851.9,1500,6851.9,4537.87,5242.75,4537.87,3265.08Z"></path></g></svg>
